<svg width="729" height="60" viewBox="0 0 729 60" xmlns="http://www.w3.org/2000/svg" xmlns:xlink="http://www.w3.org/1999/xlink">
    <defs>
        <path d="M0 0h729v60H0V0z" id="epg5d3mkca"/>
        <path id="8vn85gjy0b" d="M0 0h434.042v60H0z"/>
        <path id="1sr7h4pswd" d="M0 0h265.94v59.999H0z"/>
    </defs>
    <g fill="none" xlink:href="#epg5d3mkca" fill-rule="evenodd">
        <g>
            <mask id="5uyenph20c" fill="#fff">
                <use xlink:href="#8vn85gjy0b"/>
            </mask>
            <path d="M36.425 28.935 21.515 8.97c-4.696-6.26-7.656-7.76-12.543-7.76-3.08 0-6.138.622-8.972 1.551v56.03h12.767V20.137L36.42 51.186l23.507-31.048V58.79h12.927V2.737c-2.827-.916-5.512-1.528-8.873-1.528-4.91 0-7.997 1.483-12.709 7.761L36.425 28.935zm47.983 29.854h13.374V1.209H84.408v57.58zm84.09-14.849-11.607-6.043c-3.167 6.752-8.81 10.242-17.92 10.242-12.136 0-19.112-8.18-19.112-18.288 0-10.024 7.115-17.99 19.111-17.99 8.074 0 13.197 3.554 16.589 9.498l11.99-6.198C162.431 5.588 151.734 0 139.227 0c-20.346 0-32.843 12.834-32.843 29.85 0 17.174 12.497 30.15 32.843 30.15 14.474 0 25.037-5.779 29.27-16.06zm19.572-20.99V1.21h-13.301v57.58h13.3V34.817h29.171V58.79h13.3V1.21h-13.3v21.74h-29.17zm66.901 24.58V34.443h32.775V23.18h-32.775V12.472h35.04V1.209H242.12v47.432c0 6.583 3.482 10.15 10.051 10.15h38.161V47.53h-35.36zm57.975-.611V1.209h-13.375v47.432c0 6.583 3.483 10.15 10.128 10.15h34.154V46.918h-30.907zm38.364 11.87h13.375V1.209H351.31v57.58zm69.96-15.799L399.247 8.865c-3.783-5.914-7.501-7.656-13.652-7.656-3.777 0-6.397.544-9.34 1.557V58.79h12.697V16.102l22.819 35.84c3.472 5.524 6.903 6.848 11.61 6.848h10.662V1.21h-12.771v41.78z" fill="color(display-p3 0.729 0.043 0.184)" mask="url(#5uyenph20c)"/>
        </g>
        <g transform="translate(463.062 .001)">
            <mask id="epl76c4b9e" fill="#fff">
                <use xlink:href="#1sr7h4pswd"/>
            </mask>
            <path d="M31.47 36.878h22.388c-.891 9.338-7.8 17.095-21.71 17.02-17.202-.075-25.02-11.577-25.02-23.98 0-12.839 9.087-23.796 24.647-23.796 11.599 0 18.156 5.474 21.163 13.059l6.197-3.226C55.915 7.874 47.609 0 31.867 0 12.773 0 0 12.749 0 29.912 0 47.014 12.547 60 32.091 60c16.875 0 29.257-10.398 29.257-26.4v-2.811H31.47v6.09zm65.884 17.02c-11.548 0-19.232-6.301-19.232-17.517V1.209h-6.813v35.656c0 15.997 12.158 23.134 26.045 23.134 13.887 0 26.204-6.895 26.204-23.134V1.209h-6.812v35.172c0 11.216-7.84 17.518-19.392 17.518zm40.255 4.89h6.821V1.21h-6.821v57.58zM211.707 30c0-17.177-11.508-28.79-28.9-28.79H158.93v57.58h23.877c17.392 0 28.9-11.613 28.9-28.79zm-45.966 22.69V7.31h17.538c13.294 0 21.305 9.09 21.305 22.69 0 13.601-8.01 22.69-21.305 22.69h-17.538zm63.46.025V31.606h34.013V25.53H229.2V7.286h36.417V1.21h-43.2v52.408c0 3.335 1.828 5.172 5.156 5.172h38.367v-6.075H229.2z" fill="color(display-p3 0.729 0.043 0.184)" mask="url(#epl76c4b9e)"/>
        </g>
    </g>
</svg>
