<?xml version="1.0" encoding="UTF-8"?>
<svg id="artwork" xmlns="http://www.w3.org/2000/svg" viewBox="0 0 402.71634 372.61847">
  <defs>
    <style>
      .cls-1 {
        fill: #ba0b2f;
      }
    </style>
  </defs>
  <path class="cls-1" d="M145.31489,227.75603c21.24539,0,44.68211-25.06131,46.30654-69.20205,1.0829-37.05027-18.53821-67.55177-46.30654-67.55177-29.9858,0-50.14813,33.23452-50.14813,71.90922,0,37.5918,25.62835,64.8446,50.14813,64.8446ZM145.31489,104.61577c20.70386,0,37.05043,26.14389,35.40032,58.29567-1.0829,28.33553-14.69646,41.94909-14.69646,41.94909,10.33901-41.40772-5.46603-53.39684-20.70386-53.39684-16.88794,0-31.61008,11.98912-24.51978,51.23104,0,0-14.1806-14.72214-14.1806-39.78328,0-32.69314,16.34641-58.29567,38.70038-58.29567Z"/>
  <path class="cls-1" d="M310.97161,162.91144c0-38.67471-20.16233-71.90922-50.14813-71.90922-27.76833,0-47.38945,30.5015-46.30654,67.55177,1.62444,44.14073,25.06115,69.20205,46.30654,69.20205,24.51978,0,50.14813-27.25279,50.14813-64.8446ZM299.52386,162.91144c0,25.06115-14.1806,39.78328-14.1806,39.78328,7.0903-39.24191-7.63183-51.23104-24.51978-51.23104-15.23783,0-31.04287,11.98912-20.70386,53.39684,0,0-13.61356-13.61356-14.69646-41.94909-1.65011-32.15177,14.69646-58.29567,35.40032-58.29567,22.35397,0,38.70038,25.60252,38.70038,58.29567Z"/>
  <path class="cls-1" d="M369.83093,186.44486l-.82538-.81892.18342-1.14959c6.49839-40.8452-6.44027-125.44961-101.92441-153.29931l-.81892-.23896-.45854-.72334C254.19156,11.57724,229.70149,0,202.07266,0l-1.12763.00646c-27.665.38492-51.58027,11.93891-62.41093,30.15404l-.45854.76984-.86025.248C54.80029,55.03678,21.9079,137.43889,29.85038,187.74687l.16404,1.04367-.68975.79567c-57.37858,66.16969-14.46929,133.67496-5.28939,146.52967,10.44057,14.81029,34.85572,36.32435,49.42189,36.32435h.97263l.28933-.92742c6.24652-20.01314-.01421-24.87757-9.4899-32.23751l-1.17284-.91192c-.15113-.11883-15.14354-11.99703-26.21703-26.20541-8.47207-10.86811-16.93121-31.12667-15.48196-49.92822,1.82126-23.62982,12.49691-54.89857,36.99731-71.7807l.78792-.54508-.26867-.91709c-2.28496-7.77844-4.14885-27.91816,3.34543-54.06674,6.38602-22.27356,28.96054-74.8368,100.48291-81.8144l3.4268-.33454-2.76805-2.04601c-3.28859-2.42963-5.36302-4.82697-6.16385-7.12744-.64196-1.83417-.51408-3.67222.2945-5.19122l.28158-.43013c9.15794-9.81024,30.58675-15.30629,50.93444-13.06266,15.72092,1.72955,27.71279,7.76681,32.91176,16.57988,1.92976,3.16072,1.178,5.70402.55929,6.93498-.53475,1.05917-1.41438,2.05505-2.61434,2.9618l-2.60142,1.96463,3.23563.403c63.79172,7.9399,87.67471,46.06484,96.47615,76.64901,6.73219,23.38698,5.82672,49.57431,2.58463,59.48659l-.28288.86542.70654.5735c28.73708,23.31723,40.21616,50.74456,34.11947,81.52248-5.09693,25.74041-17.76305,45.26271-24.85949,54.60665-3.0858,4.06359-7.00602,7.91794-10.46382,11.3202-4.84506,4.76626-9.02878,8.88411-9.89419,12.4672-2.48388,10.2817,1.21805,17.00355,4.7611,20.83206l.49858.53733.71946-.13692c10.22228-1.93492,27.25941-22.18831,39.19186-37.25952,10.56974-13.53929,60.00455-84.33832-4.92514-148.77717Z"/>
  <path class="cls-1" d="M297.13556,274.07016c-4.31353,8.77157-5.51769,11.41611-13.38655,22.44826-2.51214-56.14439-24.68834-53.17242-24.68834-53.17242,0,0-25.60414-.02729-41.18685,43.15471-8.33337,23.09297-10.04306,31.38-10.95143,41.11693,0,0-3.66851.42641-5.2445.491-55.34452,2.2517-78.94156-32.15694-84.08951-37.94879-5.14811-5.79185-11.90516,0-11.90516,0-5.51963,5.51511-2.0946,12.00495-2.0946,12.00495,7.65056,10.61882,33.62735,43.41013,104.84666,43.41013s96.74562-46.75701,99.96301-52.51964c3.21739-5.76166,7.72257-15.44499,1.93153-21.23684-8.37745-6.56491-13.19425,2.2517-13.19425,2.2517Z"/>
</svg>